<?xml version="1.0" encoding="UTF-8" standalone="no"?>
<svg width="1280px" height="200px" viewBox="0 0 1280 200" version="1.1" xmlns="http://www.w3.org/2000/svg" xmlns:xlink="http://www.w3.org/1999/xlink" xmlns:sketch="http://www.bohemiancoding.com/sketch/ns">
    <title>Artboard 1</title>
    <description>Created with Sketch (http://www.bohemiancoding.com/sketch)</description>
    <defs>
        <filter x="-50%" y="-50%" width="200%" height="200%" filterUnits="objectBoundingBox" id="filter-1">
            <feGaussianBlur stdDeviation="6" in="SourceGraphic" result="blur"></feGaussianBlur>
        </filter>
        <filter x="-50%" y="-50%" width="200%" height="200%" filterUnits="objectBoundingBox" id="filter-2">
            <feGaussianBlur stdDeviation="5" in="SourceGraphic" result="blur"></feGaussianBlur>
        </filter>
    </defs>
    <g id="Page-1" stroke="none" stroke-width="1" fill="none" fill-rule="evenodd" sketch:type="MSPage">
        <g id="Artboard-1" sketch:type="MSArtboardGroup">
            <path d="M519,79 C502.36306,79 488.159228,68.5826319 482.555597,53.914988 C481.877851,53.9712875 481.192279,54 480.5,54 C466.969023,54 456,43.030977 456,29.5 C456,15.969023 466.969023,5 480.5,5 C484.648459,5 488.5561,6.03105808 491.980646,7.85089435 C496.251673,-3.17870426 506.962455,-11 519.5,-11 C531.637379,-11 542.062746,-3.67000731 546.590863,6.80474129 C551.439259,3.15999211 557.467383,1 564,1 C580.016259,1 593,13.9837415 593,30 C593,46.0162585 580.016259,59 564,59 C560.48478,59 557.115639,58.3745643 553.997785,57.2289015 C547.636139,70.1270238 534.354268,79 519,79 Z M978.5,-119 C953.54253,-119 932.235324,-103.371368 923.831313,-81.3670323 C917.013393,-84.9638674 909.244479,-87 901,-87 C873.938046,-87 852,-65.0619541 852,-38 C852,-12.0317241 872.200674,9.21842872 897.745182,10.8936169 C897.255843,13.5210917 897,16.2306682 897,19 C897,43.3005302 916.69947,63 941,63 C953.242102,63 964.316484,58.000403 972.292727,49.9316293 C980.901997,65.4762738 997.472024,76 1016.5,76 C1044.39038,76 1067,53.3903812 1067,25.5 C1067,22.9509066 1066.81113,20.4459255 1066.44663,17.9982867 C1097.72125,17.7582724 1123,-7.66877842 1123,-39 C1123,-70.4802323 1097.48023,-96 1066,-96 C1053.17447,-96 1041.33831,-91.7640462 1031.81422,-84.6148501 C1022.62742,-104.89337 1002.2111,-119 978.5,-119 Z M1375,-15 C1362.6646,-15 1351.48844,-9.98156199 1343.35961,-1.85376047 C1338.99588,-4.48958387 1333.91854,-6 1328.5,-6 C1312.2076,-6 1299,7.6553143 1299,24.5 C1299,33.4447447 1302.72421,41.4901674 1308.65692,47.06918 C1308.22655,49.1424039 1308,51.293848 1308,53.5 C1308,70.3446857 1321.2076,84 1337.5,84 C1345.97708,84 1353.61905,80.3032122 1359,74.3838575 C1364.38095,80.3032122 1372.02292,84 1380.5,84 C1394.67127,84 1406.50869,73.6688335 1409.35074,59.893814 C1409.6549,59.5307876 1409.95353,59.1628758 1410.24649,58.7902116 C1412.86559,59.5777688 1415.6351,60 1418.5,60 C1434.7924,60 1448,46.3446857 1448,29.5 C1448,12.6553143 1434.7924,-1 1418.5,-1 C1415.15753,-1 1411.94489,-0.425265706 1408.9495,0.633832425 C1400.69961,-8.94544109 1388.54909,-15 1375,-15 Z M21,-109 C8.84185167,-109 -2.3948901,-105.054992 -11.5,-98.375201 C-20.6051099,-105.054992 -31.8418517,-109 -44,-109 C-63.3001869,-109 -80.2784954,-99.0588631 -90.0937765,-84.0177386 C-97.0674321,-87.2166339 -104.825452,-89 -113,-89 C-143.375663,-89 -168,-64.3756627 -168,-34 C-168,-3.62433726 -143.375663,21 -113,21 C-113,51.3756627 -88.3756627,76 -58,76 C-42.4998766,76 -28.4973219,69.5881503 -18.5,59.272115 C-8.50267812,69.5881503 5.49987663,76 21,76 C48.0722247,76 70.5760474,56.4403572 75.1505666,30.6819732 C80.1693783,32.1897759 85.4900701,33 91,33 C121.375663,33 146,8.37566274 146,-22 C146,-52.3756627 121.375663,-77 91,-77 C84.4514369,-77 78.1701797,-75.8555283 72.3453329,-73.7556895 C64.4081182,-94.3713066 44.4124173,-109 21,-109 Z" id="clouds-back" fill="#9ED5FF" filter="url(#filter-1)" sketch:type="MSShapeGroup" transform="translate(640.000000, -17.500000) scale(-1, 1) translate(-640.000000, 17.500000) "></path>
            <path d="M442,87 C430.582435,87 420.820115,79.9130568 416.871976,69.8981067 C416.257246,69.9654406 415.632659,70 415,70 C405.611159,70 398,62.3888412 398,53 C398,43.6111588 405.611159,36 415,36 C418.032105,36 420.878806,36.7938076 423.343621,38.1849403 C426.289323,30.4754309 433.755233,25 442.5,25 C450.754507,25 457.869531,29.8787 461.118891,36.9099172 C464.440931,34.4528096 468.550804,33 473,33 C484.045696,33 493,41.9543045 493,53 C493,64.0456955 484.045696,73 473,73 C470.639562,73 468.37463,72.5910868 466.272179,71.8402347 C461.884986,80.8170342 452.664548,87 442,87 Z M805.5,20 C788.29878,20 773.602184,30.7235653 767.730794,45.8501145 C763.026825,43.39077 757.675828,42 752,42 C733.222318,42 718,57.2223176 718,76 C718,93.9406297 731.895436,108.635805 749.51107,109.910288 C749.175437,111.722389 749,113.590707 749,115.5 C749,132.344686 762.655314,146 779.5,146 C788.043314,146 795.766216,142.487401 801.303278,136.82763 C807.253466,147.658829 818.769421,155 832,155 C851.329967,155 867,139.329967 867,120 C867,118.302302 866.879127,116.632836 866.645518,114.999738 C888.393838,114.921302 906,97.2667221 906,75.5 C906,53.6847513 888.315249,36 866.5,36 C857.490394,36 849.185309,39.0164088 842.539544,44.0944263 C836.243434,29.9004859 822.027909,20 805.5,20 Z M1176,13 C1167.69743,13 1160.15719,16.3165583 1154.5924,21.7169905 C1151.61301,19.9874147 1148.16907,19 1144.5,19 C1133.17816,19 1124,28.4020197 1124,40 C1124,46.0557419 1126.50222,51.5128042 1130.50531,55.3454101 C1130.17459,56.8425645 1130,58.4003963 1130,60 C1130,71.5979803 1139.17816,81 1150.5,81 C1156.42208,81 1161.75765,78.4276189 1165.5,74.3141187 C1169.24235,78.4276189 1174.57792,81 1180.5,81 C1190.44563,81 1198.73706,73.7447517 1200.60581,64.1190295 C1202.47255,64.6921087 1204.45117,65 1206.5,65 C1217.82184,65 1227,55.5979803 1227,44 C1227,32.4020197 1217.82184,23 1206.5,23 C1204.11382,23 1201.82286,23.4176318 1199.69298,24.1854337 C1194.00646,17.3445227 1185.50254,13 1176,13 Z M143,27 C134.579581,27 126.798843,29.7387947 120.5,34.3741688 C114.201157,29.7387947 106.420419,27 98,27 C84.5559866,27 72.7425955,33.9815201 65.9875751,44.516812 C61.1278157,42.2598589 55.7110359,41 50,41 C29.0131785,41 12,58.0131785 12,79 C12,99.9868215 29.0131785,117 50,117 C50,137.986822 67.0131785,155 88,155 C98.8176776,155 108.579599,150.479774 115.5,143.225085 C122.420401,150.479774 132.182322,155 143,155 C161.765637,155 177.354238,141.3975 180.44374,123.514562 C183.795231,124.481744 187.337093,125 191,125 C211.986822,125 229,107.986822 229,87 C229,66.0131785 211.986822,49 191,49 C186.581112,49 182.33839,49.7542548 178.393553,51.1410448 C172.855301,37.0080597 159.096405,27 143,27 Z" id="clouds-middle" fill="#7EC5FD" sketch:type="MSShapeGroup"></path>
            <path d="M321.557895,212 C297.280546,212 276.52277,197.025975 268.127782,175.865354 C266.82067,176.007625 265.492601,176.080645 264.147368,176.080645 C244.183727,176.080645 228,159.999003 228,140.16129 C228,120.323577 244.183727,104.241935 264.147368,104.241935 C270.594581,104.241935 276.647567,105.919174 281.888541,108.858503 C288.152034,92.5690556 304.026917,81 322.621053,81 C340.172741,81 355.30153,91.3082209 362.210695,106.164502 C369.274401,100.972872 378.013289,97.9032258 387.473684,97.9032258 C410.960321,97.9032258 430,116.822805 430,140.16129 C430,163.499776 410.960321,182.419355 387.473684,182.419355 C382.454647,182.419355 377.638687,181.555361 373.168213,179.968883 C363.839654,198.935992 344.234091,212 321.557895,212 Z M1093.70479,70 C1057.19794,70 1026.00676,92.7975054 1013.54567,124.955429 C1003.56225,119.727044 992.205614,116.77037 980.159574,116.77037 C940.30694,116.77037 908,149.13189 908,189.051852 C908,227.192302 937.490845,258.433155 974.877218,261.142613 C974.16489,264.995006 973.792553,268.96691 973.792553,273.025926 C973.792553,308.83648 1002.77378,337.866667 1038.52394,337.866667 C1056.65576,337.866667 1073.04638,330.399141 1084.79791,318.366888 C1097.42624,341.393214 1121.86702,357 1149.94681,357 C1190.97158,357 1224.22872,323.686671 1224.22872,282.592593 C1224.22872,278.983413 1223.97219,275.434252 1223.47639,271.962405 C1269.63373,271.795658 1307,234.263328 1307,187.988889 C1307,141.611286 1269.46694,104.014815 1223.16755,104.014815 C1204.0461,104.014815 1186.41988,110.427477 1172.31531,121.222966 C1158.95282,91.0476996 1128.78264,70 1093.70479,70 Z M1881.56311,55 C1863.91008,55 1847.87792,62.0720729 1836.04598,73.5877004 C1829.71116,69.8996343 1822.38861,67.7941176 1814.58738,67.7941176 C1790.51473,67.7941176 1771,87.842542 1771,112.573529 C1771,125.486509 1776.32026,137.122891 1784.83168,145.29536 C1784.12849,148.487821 1783.75728,151.809668 1783.75728,155.220588 C1783.75728,179.951576 1803.27201,200 1827.34466,200 C1839.93626,200 1851.28082,194.514775 1859.23786,185.743341 C1867.19491,194.514775 1878.53947,200 1891.13107,200 C1912.27761,200 1929.90695,184.52925 1933.88031,164.003813 C1937.8494,165.22582 1942.05638,165.882353 1946.41262,165.882353 C1970.48527,165.882353 1990,145.833929 1990,121.102941 C1990,96.3719537 1970.48527,76.3235294 1946.41262,76.3235294 C1941.33909,76.3235294 1936.46803,77.2140677 1931.93944,78.8512925 C1919.84869,64.2640558 1901.76753,55 1881.56311,55 Z M-314.700461,85 C-332.589,85 -349.118587,90.8199388 -362.5,100.670109 C-375.881413,90.8199388 -392.411,85 -410.299539,85 C-438.860323,85 -463.956974,99.8357302 -478.307502,122.223226 C-488.631691,117.4272 -500.139228,114.75 -512.271889,114.75 C-556.856796,114.75 -593,150.903004 -593,195.5 C-593,240.096996 -556.856796,276.25 -512.271889,276.25 C-512.271889,320.846996 -476.128685,357 -431.543779,357 C-408.562445,357 -387.823985,347.394519 -373.12212,331.978307 C-358.420254,347.394519 -337.681794,357 -314.700461,357 C-274.834292,357 -241.717494,328.094687 -235.154083,290.093445 C-228.034095,292.148707 -220.509679,293.25 -212.728111,293.25 C-168.143204,293.25 -132,257.096996 -132,212.5 C-132,167.903004 -168.143204,131.75 -212.728111,131.75 C-222.115702,131.75 -231.129043,133.352792 -239.509549,136.29972 C-251.275145,106.267127 -280.504873,85 -314.700461,85 Z" id="clouds-front" fill="#E8F5FF" filter="url(#filter-2)" sketch:type="MSShapeGroup"></path>
        </g>
    </g>
</svg>