<?xml version="1.0" encoding="UTF-8" standalone="no"?>
<svg width="1000px" height="200px" viewBox="0 0 1000 200" version="1.1" xmlns="http://www.w3.org/2000/svg" xmlns:xlink="http://www.w3.org/1999/xlink" xmlns:sketch="http://www.bohemiancoding.com/sketch/ns">
    <title>back</title>
    <description>Created with Sketch (http://www.bohemiancoding.com/sketch)</description>
    <defs></defs>
    <g id="Page-1" stroke="none" stroke-width="1" fill="none" fill-rule="evenodd" sketch:type="MSPage">
        <g id="back" sketch:type="MSArtboardGroup" fill="#E6F4FF">
            <path d="M364.686131,43 C353.149567,43 343.300195,35.5920938 339.414465,25.1617692 C338.944495,25.2018044 338.469098,25.2222222 337.989051,25.2222222 C328.606257,25.2222222 321,17.4220281 321,7.8 C321,-1.82202812 328.606257,-9.62222222 337.989051,-9.62222222 C340.865719,-9.62222222 343.575398,-8.88902536 345.950083,-7.59491957 C348.911744,-15.4381897 356.338929,-21 365.032847,-21 C373.449278,-21 380.678546,-15.7875608 383.818482,-8.33885064 C387.180508,-10.9306723 391.360594,-12.4666667 395.890511,-12.4666667 C406.996676,-12.4666667 416,-3.23378385 416,8.15555556 C416,19.544895 406.996676,28.7777778 395.890511,28.7777778 C393.45295,28.7777778 391.116684,28.3330235 388.954668,27.51833 C384.543308,36.690328 375.333251,43 364.686131,43 Z M688.289668,-56 C671.068092,-56 656.365334,-45.1000307 650.566257,-29.7534174 C645.86164,-32.2619793 640.500803,-33.6820513 634.811808,-33.6820513 C616.138061,-33.6820513 601,-18.3816705 601,0.492307692 C601,18.6035155 614.939211,33.4241349 632.565863,34.5924713 C632.228201,36.4249665 632.051661,38.3147224 632.051661,40.2461538 C632.051661,57.1942159 645.645022,70.9333333 662.413284,70.9333333 C670.860786,70.9333333 678.502519,67.4464349 684.006421,61.8189825 C689.947134,72.6603756 701.381064,80 714.51107,80 C733.756462,80 749.357934,64.2312403 749.357934,44.7794872 C749.357934,43.0016579 749.227608,41.2545942 748.976087,39.547523 C770.556733,39.3801284 788,21.6463904 788,-0.205128205 C788,-22.1605723 770.390419,-39.9589744 748.667897,-39.9589744 C739.817811,-39.9589744 731.65042,-37.0046681 725.078444,-32.0185621 C718.739216,-46.1615298 704.651202,-56 688.289668,-56 Z" id="clouds-back" sketch:type="MSShapeGroup" transform="translate(554.500000, 12.000000) scale(-1, 1) translate(-554.500000, -12.000000) "></path>
        </g>
    </g>
</svg>