<?xml version="1.0" encoding="UTF-8" standalone="no"?>
<svg width="1280px" height="200px" viewBox="0 0 1280 200" version="1.1" xmlns="http://www.w3.org/2000/svg" xmlns:xlink="http://www.w3.org/1999/xlink">
    <title>Clouds</title>
    <defs></defs>
    <g id="Page-1" stroke="none" stroke-width="1" fill="none" fill-rule="evenodd" sketch:type="MSPage">
        <g id="clouds" fill="#7EC5FD">
            <path d="M442,87 C430.582435,87 420.820115,79.9130568 416.871976,69.8981067 C416.257246,69.9654406 415.632659,70 415,70 C405.611159,70 398,62.3888412 398,53 C398,43.6111588 405.611159,36 415,36 C418.032105,36 420.878806,36.7938076 423.343621,38.1849403 C426.289323,30.4754309 433.755233,25 442.5,25 C450.754507,25 457.869531,29.8787 461.118891,36.9099172 C464.440931,34.4528096 468.550804,33 473,33 C484.045696,33 493,41.9543045 493,53 C493,64.0456955 484.045696,73 473,73 C470.639562,73 468.37463,72.5910868 466.272179,71.8402347 C461.884986,80.8170342 452.664548,87 442,87 Z M805.5,20 C788.29878,20 773.602184,30.7235653 767.730794,45.8501145 C763.026825,43.39077 757.675828,42 752,42 C733.222318,42 718,57.2223176 718,76 C718,93.9406297 731.895436,108.635805 749.51107,109.910288 C749.175437,111.722389 749,113.590707 749,115.5 C749,132.344686 762.655314,146 779.5,146 C788.043314,146 795.766216,142.487401 801.303278,136.82763 C807.253466,147.658829 818.769421,155 832,155 C851.329967,155 867,139.329967 867,120 C867,118.302302 866.879127,116.632836 866.645518,114.999738 C888.393838,114.921302 906,97.2667221 906,75.5 C906,53.6847513 888.315249,36 866.5,36 C857.490394,36 849.185309,39.0164088 842.539544,44.0944263 C836.243434,29.9004859 822.027909,20 805.5,20 Z M1176,13 C1167.69743,13 1160.15719,16.3165583 1154.5924,21.7169905 C1151.61301,19.9874147 1148.16907,19 1144.5,19 C1133.17816,19 1124,28.4020197 1124,40 C1124,46.0557419 1126.50222,51.5128042 1130.50531,55.3454101 C1130.17459,56.8425645 1130,58.4003963 1130,60 C1130,71.5979803 1139.17816,81 1150.5,81 C1156.42208,81 1161.75765,78.4276189 1165.5,74.3141187 C1169.24235,78.4276189 1174.57792,81 1180.5,81 C1190.44563,81 1198.73706,73.7447517 1200.60581,64.1190295 C1202.47255,64.6921087 1204.45117,65 1206.5,65 C1217.82184,65 1227,55.5979803 1227,44 C1227,32.4020197 1217.82184,23 1206.5,23 C1204.11382,23 1201.82286,23.4176318 1199.69298,24.1854337 C1194.00646,17.3445227 1185.50254,13 1176,13 Z M143,27 C134.579581,27 126.798843,29.7387947 120.5,34.3741688 C114.201157,29.7387947 106.420419,27 98,27 C84.5559866,27 72.7425955,33.9815201 65.9875751,44.516812 C61.1278157,42.2598589 55.7110359,41 50,41 C29.0131785,41 12,58.0131785 12,79 C12,99.9868215 29.0131785,117 50,117 C50,137.986822 67.0131785,155 88,155 C98.8176776,155 108.579599,150.479774 115.5,143.225085 C122.420401,150.479774 132.182322,155 143,155 C161.765637,155 177.354238,141.3975 180.44374,123.514562 C183.795231,124.481744 187.337093,125 191,125 C211.986822,125 229,107.986822 229,87 C229,66.0131785 211.986822,49 191,49 C186.581112,49 182.33839,49.7542548 178.393553,51.1410448 C172.855301,37.0080597 159.096405,27 143,27 Z" id="clouds-middle" sketch:type="MSShapeGroup"></path>
        </g>
    </g>
</svg>
