<?xml version="1.0" encoding="UTF-8" standalone="no"?>
<svg width="2000px" height="200px" viewBox="0 0 2000 200" version="1.1" xmlns="http://www.w3.org/2000/svg" xmlns:xlink="http://www.w3.org/1999/xlink" xmlns:sketch="http://www.bohemiancoding.com/sketch/ns">
    <title>front</title>
    <description>Created with Sketch (http://www.bohemiancoding.com/sketch)</description>
    <defs></defs>
    <g id="Page-1" stroke="none" stroke-width="1" fill="none" fill-rule="evenodd" sketch:type="MSPage">
        <g id="front" sketch:type="MSArtboardGroup" fill="#E8F5FF" opacity="0.497940341">
            <path d="M1059.55789,140 C1035.28055,140 1014.52277,125.025975 1006.12778,103.865354 C1004.82067,104.007625 1003.4926,104.080645 1002.14737,104.080645 C982.183727,104.080645 966,87.9990032 966,68.1612903 C966,48.3235774 982.183727,32.2419355 1002.14737,32.2419355 C1008.59458,32.2419355 1014.64757,33.9191742 1019.88854,36.8585029 C1026.15203,20.5690556 1042.02692,9 1060.62105,9 C1078.17274,9 1093.30153,19.3082209 1100.2107,34.1645024 C1107.2744,28.972872 1116.01329,25.9032258 1125.47368,25.9032258 C1148.96032,25.9032258 1168,44.8228046 1168,68.1612903 C1168,91.4997761 1148.96032,110.419355 1125.47368,110.419355 C1120.45465,110.419355 1115.63869,109.555361 1111.16821,107.968883 C1101.83965,126.935992 1082.23409,140 1059.55789,140 Z M1601.49474,185 C1536.23434,185 1480.43497,144.764451 1457.86824,87.9053799 C1454.35457,88.2876628 1450.78457,88.483871 1447.16842,88.483871 C1393.50378,88.483871 1350,45.2721308 1350,-8.03225806 C1350,-61.3366469 1393.50378,-104.548387 1447.16842,-104.548387 C1464.4993,-104.548387 1480.77044,-100.041608 1494.8588,-92.1435648 C1511.69581,-135.913683 1554.36939,-167 1604.35263,-167 C1651.53365,-167 1692.20164,-139.301574 1710.77429,-99.3824058 C1729.76237,-113.332436 1753.25355,-121.580645 1778.68421,-121.580645 C1841.81908,-121.580645 1893,-70.7433037 1893,-8.03225806 C1893,54.6787876 1841.81908,105.516129 1778.68421,105.516129 C1765.19244,105.516129 1752.24657,103.194558 1740.2294,98.931655 C1715.15313,149.89671 1662.45105,185 1601.49474,185 Z M500.704787,-109 C464.197942,-109 433.006763,-86.2024946 420.545674,-54.0445713 C410.56225,-59.2729557 399.205614,-62.2296296 387.159574,-62.2296296 C347.30694,-62.2296296 315,-29.86811 315,10.0518519 C315,48.1923017 344.490845,79.4331551 381.877218,82.1426128 C381.16489,85.9950057 380.792553,89.9669104 380.792553,94.0259259 C380.792553,129.83648 409.773779,158.866667 445.523936,158.866667 C463.655756,158.866667 480.046383,151.399141 491.797914,139.366888 C504.426239,162.393214 528.867016,178 556.946809,178 C597.971579,178 631.228723,144.686671 631.228723,103.592593 C631.228723,99.9834132 630.97219,96.4342516 630.476392,92.9624052 C676.633731,92.7956578 714,55.2633278 714,8.98888889 C714,-37.3887139 676.466937,-74.9851852 630.167553,-74.9851852 C611.046102,-74.9851852 593.419884,-68.5725234 579.315309,-57.7770344 C565.95282,-87.9523004 535.782636,-109 500.704787,-109 Z" id="clouds-front" sketch:type="MSShapeGroup"></path>
        </g>
    </g>
</svg>