<?xml version="1.0" encoding="UTF-8" standalone="no"?>
<svg width="2000px" height="200px" viewBox="0 0 2000 200" version="1.1" xmlns="http://www.w3.org/2000/svg" xmlns:xlink="http://www.w3.org/1999/xlink" xmlns:sketch="http://www.bohemiancoding.com/sketch/ns">
    <title>front</title>
    <description>Created with Sketch (http://www.bohemiancoding.com/sketch)</description>
    <defs></defs>
    <g id="Page-1" stroke="none" stroke-width="1" fill="none" fill-rule="evenodd" sketch:type="MSPage">
        <g id="front" sketch:type="MSArtboardGroup" fill="#E8F5FF" opacity="0.497940341">
            <path d="M989.557895,155 C965.280546,155 944.52277,140.025975 936.127782,118.865354 C934.82067,119.007625 933.492601,119.080645 932.147368,119.080645 C912.183727,119.080645 896,102.999003 896,83.1612903 C896,63.3235774 912.183727,47.2419355 932.147368,47.2419355 C938.594581,47.2419355 944.647567,48.9191742 949.888541,51.8585029 C956.152034,35.5690556 972.026917,24 990.621053,24 C1008.17274,24 1023.30153,34.3082209 1030.2107,49.1645024 C1037.2744,43.972872 1046.01329,40.9032258 1055.47368,40.9032258 C1078.96032,40.9032258 1098,59.8228046 1098,83.1612903 C1098,106.499776 1078.96032,125.419355 1055.47368,125.419355 C1050.45465,125.419355 1045.63869,124.555361 1041.16821,122.968883 C1031.83965,141.935992 1012.23409,155 989.557895,155 Z M1531.49474,200 C1466.23434,200 1410.43497,159.764451 1387.86824,102.90538 C1384.35457,103.287663 1380.78457,103.483871 1377.16842,103.483871 C1323.50378,103.483871 1280,60.2721308 1280,6.96774194 C1280,-46.3366469 1323.50378,-89.5483871 1377.16842,-89.5483871 C1394.4993,-89.5483871 1410.77044,-85.0416082 1424.8588,-77.1435648 C1441.69581,-120.913683 1484.36939,-152 1534.35263,-152 C1581.53365,-152 1622.20164,-124.301574 1640.77429,-84.3824058 C1659.76237,-98.3324357 1683.25355,-106.580645 1708.68421,-106.580645 C1771.81908,-106.580645 1823,-55.7433037 1823,6.96774194 C1823,69.6787876 1771.81908,120.516129 1708.68421,120.516129 C1695.19244,120.516129 1682.24657,118.194558 1670.2294,113.931655 C1645.15313,164.89671 1592.45105,200 1531.49474,200 Z M430.704787,-94 C394.197942,-94 363.006763,-71.2024946 350.545674,-39.0445713 C340.56225,-44.2729557 329.205614,-47.2296296 317.159574,-47.2296296 C277.30694,-47.2296296 245,-14.86811 245,25.0518519 C245,63.1923017 274.490845,94.4331551 311.877218,97.1426128 C311.16489,100.995006 310.792553,104.96691 310.792553,109.025926 C310.792553,144.83648 339.773779,173.866667 375.523936,173.866667 C393.655756,173.866667 410.046383,166.399141 421.797914,154.366888 C434.426239,177.393214 458.867016,193 486.946809,193 C527.971579,193 561.228723,159.686671 561.228723,118.592593 C561.228723,114.983413 560.97219,111.434252 560.476392,107.962405 C606.633731,107.795658 644,70.2633278 644,23.9888889 C644,-22.3887139 606.466937,-59.9851852 560.167553,-59.9851852 C541.046102,-59.9851852 523.419884,-53.5725234 509.315309,-42.7770344 C495.95282,-72.9523004 465.782636,-94 430.704787,-94 Z" id="clouds-front" sketch:type="MSShapeGroup"></path>
        </g>
    </g>
</svg>