<?xml version="1.0" encoding="UTF-8" standalone="no"?>
<svg width="1438px" height="99px" viewBox="0 0 1438 99" version="1.1" xmlns="http://www.w3.org/2000/svg" xmlns:xlink="http://www.w3.org/1999/xlink" xmlns:sketch="http://www.bohemiancoding.com/sketch/ns">
    <title>header-trees</title>
    <description>Created with Sketch (http://www.bohemiancoding.com/sketch)</description>
    <defs></defs>
    <g id="Page-1" stroke="none" stroke-width="1" fill="none" fill-rule="evenodd" sketch:type="MSPage">
        <g id="header-trees" sketch:type="MSArtboardGroup">
            <path d="M11,61.0207498 C11,61.0207498 74.4,34.4207498 128.5,37.6207498 C182.6,40.8207498 231.5,56.8207498 274.6,53.1207498 C317.8,49.4207498 358.4,36.5207498 588.9,37.4207498 C819.4,38.3207498 804.9,58.7207498 901.4,58.1207498 C997.9,57.5207498 1078,30.3207498 1175.8,34.4207498 C1273.6,38.5207498 1368.7,66.1207498 1419.6,98.6207498 L11,98.6207498 L11,61.0207498 L11,61.0207498 Z" id="Shape" fill="#D2E589" sketch:type="MSShapeGroup"></path>
            <g id="Group" sketch:type="MSLayerGroup" transform="translate(0.000000, 17.000000)" fill="#ADD014">
                <path d="M1437.8,36.7 L1437.8,36.7 L1438.2,36.7 L1437.8,36.7 L1437.8,36.7 Z" id="Shape" sketch:type="MSShapeGroup"></path>
                <path d="M1438,82 L1438,36.8 C1425.1,36.9 1414.6,43.9 1403.2,48.9 C1401.2,49.8 1399.5,50.5 1397.6,51 C1397.6,47.4 1413.9,38.9 1403.4,39.8 C1404.7,38.6 1406,38.6 1407.3,39.6 C1409,34.7 1402.6,31.3 1398.7,32.9 C1402.6,30.1 1407.9,28.8 1403.1,25.7 C1402.2,25.3 1396.8,18.1 1392.7,21.1 C1390.7,22.5 1384.8,33.8 1392.1,30.9 C1388.4,34.6 1387.2,33.3 1387.8,38 C1387.9,39.2 1392.4,39.2 1393.2,40.1 C1390.1,40.2 1389.6,40.6 1387.8,42.8 C1388.4,43.4 1389,42.4 1389.6,44.1 C1388.5,44.1 1388.2,44.6 1388.3,45.6 C1388.2,46.3 1396.5,47.6 1396.5,51.6 C1382.8,55.6 1366.3,51.5 1352.6,49.5 C1333.9,46.7 1315.2,44.1 1296.2,43 C1258.1,40.9 1220.1,44.5 1181.9,44.1 C1147.8,43.6 1112.5,44.2 1078.6,40.8 C1072.4,40.2 1065.7,38.6 1059.8,41.3 C1053.9,44.1 1047.4,46 1041.6,41.9 C1033.9,36.5 1042.8,34.4 1044.4,33.5 C1043.8,35.2 1045,32.7 1044.6,35.3 C1045.2,34.5 1045.7,34.2 1046.1,34.4 C1045.7,33.9 1045.3,33.6 1044.8,33.1 C1046.7,33.6 1048.2,29.9 1048.4,28.7 C1052.2,33 1048.9,28 1051.5,29.1 C1050.4,27.7 1051.1,23.7 1053.4,25.1 C1052.8,23.8 1052.3,23.1 1051.9,22.7 C1053.8,21.5 1053.2,19.3 1050.2,19.7 C1052.6,18.6 1050.3,18.2 1049.6,18.6 C1051.6,18.3 1044.4,7.1 1050.6,9.6 C1048.5,4.2 1030.8,-0.6 1029.5,8.9 C1029.5,8.8 1030.2,10.2 1031.2,10 C1030.5,10.8 1030.3,11.9 1030.7,12.8 C1025.1,16 1025.4,1.6 1019.8,3.8 C1016.5,5.1 1012,14.2 1013.2,16.1 C1012,17.3 1012.8,25.9 1012.9,26.5 C1013.4,28.9 1019.5,27.7 1020.5,28.5 C1022.9,38.6 1008.3,45.1 1002.3,51.2 C988.2,65.5 976.5,55.9 961.1,48.8 C926.4,32.7 892.7,36.2 855.8,41.3 C855.3,38.6 855.9,36.1 857.5,34 C859.7,35.9 864.8,33.8 866,35.4 C865.6,34.5 865.4,33.5 865.2,32.6 C866.1,33 867.1,33.2 868.2,33.2 C868.8,32.7 865.2,29.8 866.5,30 C866.1,29.9 872.1,27 872.2,27.3 C872.1,24.3 867,24.7 867.2,23.9 C869.3,24.7 868.5,23.3 868.1,22 C869,22 869.3,22.5 869,23.3 C869.6,22.9 870.2,22.7 870.8,22.7 C870.8,22.2 869.9,20 872.2,22 C871.5,20.7 869.9,19.8 868.5,18.3 C868.9,17.2 869.6,16.9 870.6,17.2 C869.9,14.5 865.5,16.1 865,13.5 C864.9,12.9 868.2,11.6 865.8,9 C867.3,10.3 867,7.2 866.6,6.3 C866.2,7.2 858.1,7.1 857.5,6.9 C857.5,6 858.1,5.5 859.2,5.8 C859.2,5 856.1,1.3 855.8,0.4 C855.3,3.90354415e-13 842.9,8.3 849.2,10.3 C850.7,13.7 843.9,9.8 844.2,9.7 C842.4,9.9 842.1,15.5 844.6,13 C844.6,13.2 843.9,14.2 843.5,14.8 C841.3,15.3 836.7,16 837.1,16.6 C837.8,16.8 839.9,18.5 840.3,19 C840.5,19.4 838.2,22.7 838.6,24 C838.1,24.6 834.6,22.7 835.4,25.1 C835.4,25.1 840.6,29.7 841.8,27.8 C841.4,28.8 840.6,31 840.5,31.2 C840.7,30.8 847.6,26.8 848.1,29.3 C846.7,30.1 845.8,31.4 845.7,33.1 C846.4,32.7 849.5,33.9 849.3,31.6 C851.2,34.1 850,32.3 849.7,34.3 C855.6,32.6 854,42.6 845.6,43.2 C833.9,43.9 821.1,48.4 809.4,46.2 C809.9,45.3 809,44.7 808,44.5 C808.7,44.5 809.3,44.1 809.7,43.3 C809.2,43.1 808.6,42.9 808.1,42.7 C809.5,42.7 799.2,32.3 797.7,36.8 C797.5,35.5 796.9,34.2 795.3,33.8 C797.9,25.4 783.8,29.6 784.5,31.2 C783.9,30.1 787.1,27.2 784.4,27.1 C783.5,27.1 779.5,30.1 782.4,29.5 C779.7,30.7 779.8,31.6 782.6,32.3 C781.7,33 776.6,33.6 777.2,35.6 C777.6,36.5 776.4,39.9 776,41 C775.2,39.9 763.2,46 764.8,46.7 C759.7,44.3 761.5,38.8 753.2,42.9 C744.6,47.2 738.3,47.6 728.7,48.7 C728.2,40.2 738.2,44.3 736.8,36.3 C736.1,32.4 732.8,27.5 732.1,25.5 C735.2,24.4 729.5,20.4 728.9,19.7 C726.3,17.1 724,23.1 722.4,24 C718.5,26 723.7,31.9 718.1,31.2 C719.3,32.5 720,40.8 720.2,41.5 C720.8,43.9 726.6,42.6 727.5,43.4 C729,49.6 723.5,50 719.3,53.2 C709.8,60.5 704.1,54.6 694.9,50.1 C692.6,49 676.4,44.7 677.6,42 C678.8,39.4 684.9,36 687.5,35.8 C686,33.2 682.2,35.9 680.5,34.4 C680.6,34.3 680.7,34.2 680.7,33.9 C683.5,32.8 692.9,32.8 693.4,31.1 C693.9,29.1 686.1,28.5 681.6,29.4 C681.7,28.9 681.7,28.5 681.6,28 C684.8,27.1 689.3,26.6 690.2,26.8 C689.6,25.9 688.9,24.9 688.3,23.8 C689.5,23.4 690.6,23.6 691.6,24.2 C691,23.4 692.7,21.1 694.1,21.1 C692.1,20.5 690.1,20.4 687.9,20.7 C688.7,20 689.7,19.5 690.7,19.4 C690.1,18.9 682.9,12.2 687.9,13 C687.9,12.6 683.9,11.1 683.2,10.5 C685.8,11.8 684.7,7.2 686.6,7.9 C686.1,7.8 678.5,3.5 683,3.2 C680.2,2.7 677.7,3.2 675.4,4.9 C676.1,5.1 676.6,5.6 676.8,6.3 C674.9,7 667.3,3.1 666.6,6.4 C671.1,5.6 667,12.6 670.9,13.3 C667.6,15.3 669,16.5 665.2,17.4 C667.1,17.5 667.8,18.2 667.6,19.6 C665.9,19.8 664.7,20.1 663.4,20.4 C662.9,20.1 662.9,19.8 662.8,19.7 C661.8,17 664.9,19.4 664.2,15.9 C663.6,12.9 657.9,19.2 658.3,15.5 C664.8,12.1 651.5,7.6 652.1,6.6 C651.7,7.9 649,10.2 649.1,11.5 C649.9,11.3 650.5,11.5 650.6,12.3 C647.6,13.1 645.2,13.1 642.8,11.5 C642.2,11.1 641.4,15.6 643,14.3 C641.1,16.9 643.2,17.3 643.8,18.1 C643.6,20.8 639.4,18.9 638.7,21.5 C639.6,21.3 640.4,21.5 640.8,22.2 C639.4,23.3 638.2,24.4 637.2,25.9 C639.9,23.1 637.1,27.6 639,25.3 C637.8,27.4 640.9,27.4 642,27.5 C639.6,28.6 637.5,27.1 637.4,30.6 C638.9,28.8 640.4,33.9 642.7,33.1 C641.9,33.8 641.3,34.6 640.8,35.7 C641.9,35.6 642.8,35.7 643.9,35.9 C643.1,36.3 642.7,37 643,37.9 C648.8,29.3 661.7,51.3 645.7,49 C634,47.5 634.2,53.9 625.3,56.8 C623.5,57.4 615.1,66.9 614.3,64 C615.5,64.4 616.4,63.9 616.9,62.8 C615.4,62.1 613.7,61.5 611.9,61.1 C614.7,57.9 614.1,63 615.2,61.5 C619.7,55.3 605.6,55.7 603.7,57.6 C604.2,56.3 605.8,54.4 603.6,54.3 C602.7,54.3 598.7,57.3 601.5,56.7 C598.8,57.9 598.9,58.8 601.7,59.5 C600.9,60.1 593.9,66.3 596,66 C585,67.2 580.3,56.8 574.2,49.9 C559.4,33.1 523.4,38.3 503.5,38.4 C476.3,38.5 449.4,40.2 423,47.5 C411.6,50.7 400.4,54.3 388.8,56.7 C383.1,57.9 377.1,58.8 371.3,57.6 C361.7,55.6 362.4,52.3 362.5,43.3 C370.2,47.7 373.7,36.4 372.1,31.1 C370.9,27.2 369.6,26 368.9,22.9 C369.1,24.1 366.5,17.2 368.2,18.9 C364.6,15.3 362.6,10.7 357.9,16.8 C354.1,21.5 353.8,27.6 349.3,28.3 C348.8,27.8 352.9,42.7 353.3,41 C355.4,44.3 358.5,41.6 361.4,43.8 C362.1,47.1 362.1,50.4 361.5,53.7 C346.1,46 329.1,42.1 311.9,41.5 C292.7,40.8 274,37 254.8,36.1 C234.3,35.2 214.8,38.1 194.4,39.7 C177.6,41 161.6,35.3 145.3,36 C132.9,36.6 126.1,53.5 115.2,59 C100,66.5 82.8,58.8 69.6,50.6 C63.7,46.9 57.4,40.3 50.8,38.2 C45.7,36.5 43.1,39.5 42.7,32.6 C42.5,28.8 54.1,25 56.9,28.3 C56.3,25.9 54.9,24.4 52.6,23.7 C53.2,23.3 59.6,21.6 59.8,21.9 C60.3,19.2 53.9,19.2 52.6,18.2 C54.1,17.5 55.7,17.3 57.3,17.5 C56.7,16.7 56,14.9 55.4,13.1 C55.3,13.2 54.3,9 54.8,8.1 C54.8,8.2 50.5,8.6 48.8,9.5 C49.2,8.4 49.3,7 50,7.1 C48.7,4.6 45.3,8.2 44.3,8.9 C44.1,8.1 45,5.6 45.4,4.8 C41.6,6.1 31.5,6 32.6,12.3 C31.5,11.6 28.1,9.3 27.9,12.3 C29.9,10.8 30.4,16.2 30.1,16.7 C29.6,17.6 26.2,17.2 25,18.4 C26.2,17.9 27.7,22.5 28,23.3 C28.6,21.2 28.2,23.4 28.2,23.8 C30,23.1 31.9,23.2 33.6,24 C31.2,24 29.6,25.1 28.6,27.1 C29.7,32.9 34.5,19.4 33.7,30.2 C40.6,22.9 40.9,34 41.2,37.4 C26.6,36.7 14.6,38.3999991 0,38.1999991 L9.21204446e-09,82.1814597 L1438,82 Z M1401.7,30.5 C1401.3,30.5 1401.1,30.5 1400.8,30.4 C1401.2,30 1401.3,30.4 1401.7,30.5 L1401.7,30.5 Z M1400.3,29.9 C1400.4,31.3 1399.1,31.6 1398.8,31.6 C1399.2,30.8 1399.3,30.3 1400.3,29.9 L1400.3,29.9 Z M1398.1,43.6 C1398.2,43.6 1399.4,42.3 1400.1,41.6 C1399.4,42.7 1398.1,44.5 1398.1,43.6 L1398.1,43.6 Z M1399.2,40.9 C1398.8,41.3 1398.7,41.5 1398.5,41.7 C1398.8,41.3 1398.7,41 1399.2,40.9 L1399.2,40.9 Z M1398.2,30.6 C1398.6,30.6 1398,31.4 1397.8,31.4 C1397.9,31.1 1398,30.8 1398.2,30.6 L1398.2,30.6 Z M1396.5,46.1 C1396.4,46 1396.3,45.7 1396.1,45.5 C1396.4,46 1396.5,44.1 1396.5,46.1 L1396.5,46.1 Z M1393,38.3 C1393.4,38.9 1393.5,38.2 1393.7,39.4 C1393.5,39 1393.3,38.7 1393,38.3 L1393,38.3 Z M1394.1,45.5 C1394.8,46.4 1395.3,46.2 1395.4,46 L1395.4,45.8 C1396.6,47.5 1398.4,51.3 1394.1,45.5 L1394.1,45.5 Z M1048.1,19.7 C1047.9,19.8 1047.7,19.8 1047.6,19.5 C1047.6,19.6 1047.3,18.5 1048.1,19.7 L1048.1,19.7 Z M1046.8,15.6 C1046.7,15.8 1046.6,16.1 1046.3,16.1 C1046.5,15.7 1046.4,15.4 1046.8,15.6 L1046.8,15.6 Z M1038,34.2 C1038.4,34.9 1038.5,36.3 1038.5,37.4 C1037.8,35.7 1037.9,35.7 1038,34.2 L1038,34.2 Z M1033,8.3 C1032.8,8.5 1032.8,8.4 1032.4,8.3 C1032.5,8.3 1032.2,7.8 1033,8.3 L1033,8.3 Z M1027.3,13.2 C1027.2,15.7 1026.4,13.4 1026.6,13.4 C1025.9,12.6 1027.5,11.7 1027.3,13.2 L1027.3,13.2 Z M1028.9,29.1 C1024.2,31.5 1037.8,36.4 1038.3,39.4 C1033.4,36.9 1027.4,35 1021.8,36.4 C1021.6,33.6 1021.4,30.7 1021.4,27.9 C1024,27.8 1026.5,28.1 1028.9,29.1 L1028.9,29.1 Z M868.2,18.2 C869.3,18.7 867.6,19.4 867.3,19.4 C867.4,19 867.8,18.6 868.2,18.2 L868.2,18.2 Z M857.9,33.6 C857.9,33.7 858.1,33.7 858.1,33.8 C858,33.8 857.1,33.9 857.9,33.6 L857.9,33.6 Z M843.3,27.6 L843.3,27.2 C843.3,27.2 843.3,27.2 843.3,27.1 C843.3,26.7 843.4,26.4 843.7,26.5 L843.3,27.6 L843.3,27.6 Z M845.2,13.4 C844.7,13.4 844.7,13.3 845.2,13.2 C845.5,13.3 845.5,13.4 845.2,13.4 L845.2,13.4 Z M855.7,34.4 C855.9,33.8 856.1,33.8 856.5,33.5 C856.6,33.7 856,34.2 855.7,34.4 L855.7,34.4 Z M857.4,31.4 C857,29.9 855.6,30.5 855.6,30.3 L855.9,30 C855.8,30.1 857.4,30.4 857.4,31.4 L857.4,31.4 Z M854.2,29.1 C853.3,28.6 852.5,27.9 852.1,27.1 C851.9,24.7 855.5,29.4 854.2,29.1 L854.2,29.1 Z M853.2,31.4 C852.8,31.3 852.8,30.9 853.1,30.8 C853.4,30.7 853.9,31.4 853.2,31.4 L853.2,31.4 Z M851.1,27.6 C850.9,27.5 850.6,27.5 850.5,27.4 C850.6,27.1 850.9,27.5 851.1,27.6 L851.1,27.6 Z M849.9,28.4 C849.8,28.5 849.7,28.4 849.8,28 C850.3,28.1 850.9,28.2 851.3,28.5 C850.6,28.6 850.2,28.6 849.9,28.4 L849.9,28.4 Z M850.6,31.7 C850.8,31.2 851.2,30.9 851.8,30.8 C851.6,31.9 853.8,34.8 853.7,34.7 L850.6,31.7 L850.6,31.7 Z M803.9,41.5 C804.1,41.5 804.5,41.5 804.7,41.3 C804.9,42 804.3,41.9 803.9,41.5 L803.9,41.5 Z M807.6,42.2 C806.8,41.9 806,41.6 805.1,41.5 C807.3,38.7 806.4,41.5 807.6,42.2 L807.6,42.2 Z M804.9,40.8 C804.3,40.6 802.3,39.6 802.5,39.3 C804.2,39.8 805.4,38.1 804.9,40.8 L804.9,40.8 Z M795.1,33.7 C794.5,33.6 793.7,33.6 792.7,33.9 C794.4,32 794.9,33.2 795.1,33.7 L795.1,33.7 Z M791.3,31.2 C792.5,30.8 792.8,31.4 792.4,33.1 L792.4,33 L792.4,33.1 C791.5,32.6 790.5,32.2 789.7,31.7 C792.1,30.7 791.8,31 791.3,31.2 L791.3,31.2 Z M783.5,28.6 C783.5,29 783.5,29.2 783.1,29 C783.2,28.8 783.4,28.7 783.5,28.6 L783.5,28.6 Z M783.7,31 C784.1,31.2 784.1,31.4 783.9,31.2 C783.9,31.4 783.7,31.7 783.1,31.9 C783.2,31.7 783.1,31.5 783.1,31.7 C783,31.1 783.1,30.8 783.7,31 L783.7,31 Z M719.7,31.4 L719.7,31.2 C719.8,31.2 720.1,31.3 719.7,31.4 L719.7,31.4 Z M683.1,25.8 C683.9,26 684,26.4 681.6,26.9 C681.9,26.3 682.5,26 683.1,25.8 L683.1,25.8 Z M678.8,39.6 C678.8,39.2 679.6,38.8 679.9,39.1 C679.5,39.3 679.2,39.5 678.8,39.6 C678.9,39.7 678.9,39.8 678.8,39.6 L678.8,39.6 Z M680.3,34.8 C680.5,34.9 680.7,35 680.9,35.2 C679.7,36.1 678.9,36.6 678.5,36.4 C679.2,35.9 679.9,35.5 680.3,34.8 L680.3,34.8 Z M640.9,27.4 C640.8,26.6 640.7,26.7 641.8,26.5 C641.6,26.8 641.2,27.1 640.9,27.4 L640.9,27.4 Z M642,23.9 C642.2,23.1 640.2,24.6 641.9,23.1 C642.5,23.9 642.2,23.9 642,23.9 L642,23.9 Z M676.8,37.1 C676.4,37.8 676.1,38.4 675.6,37.8 C675.5,37.6 675.4,37.4 675.4,37.2 C675.8,37.2 676.3,37.1 676.8,37.1 L676.8,37.1 Z M654.6,37.7 C654.7,37.7 654.8,37.7 654.9,37.6 C654.7,37.7 654.5,37.9 654.3,38 C654.5,37.9 654.6,37.8 654.6,37.7 L654.6,37.7 Z M657.8,36.2 C657.9,36.1 658.2,36 658.3,35.8 C659.1,36.2 661.7,36.4 661.7,36.4 C661.9,35.9 661.5,35.1 661,34.5 C661.8,34.1 662.7,33.8 663.5,33.6 C663.9,33.5 664.2,33.4 664.7,33.2 C664.8,33.2 664.8,33.3 664.9,33.3 C661.7,34.4 665.4,33.2 662.7,35.7 C663.3,35.2 667.8,37.1 667,38.3 C668.7,35.9 677.9,38.4 677.5,44.6 C673,43.9 668.6,44 664.2,44.4 C660.1,44.9 658.4,49.6 654.1,50.2 C655,42.7 655.6,41.1 657.8,36.2 L657.8,36.2 Z M603.6,56.7 C603.6,57.1 603.6,57.3 603.2,57.1 C603.3,56.9 603.5,56.8 603.6,56.7 L603.6,56.7 Z M603.7,59 C604.1,59.2 604.1,59.4 603.9,59.2 C604,59.4 603.8,59.7 603.2,59.9 C603,59.3 603.1,58.9 603.7,59 L603.7,59 Z M54.8,14.4 C53.9,14.6 54.4,14.6 53.5,14.6 C53.5,14.3 54.5,14 54.8,14.4 L54.8,14.4 Z M52.8,22.9 C52.7,23.1 52.4,23.5 53.2,23 C53.8,22.1 53,26.6 52.3,23.8 C52.5,23.4 52.7,23 52.8,22.9 L52.8,22.9 Z M49.3,27.2 C49.3,26.4 49.4,26.5 49.5,27.4 C48.5,27.1 48.6,27.1 49.3,27.2 L49.3,27.2 Z" id="Shape" sketch:type="MSShapeGroup"></path>
                <path d="M53.5,14.5 C53.7,14.5 53.5,14.4 53.5,14.5 L53.5,14.5 L53.5,14.5 Z" id="Shape" sketch:type="MSShapeGroup"></path>
            </g>
        </g>
    </g>
</svg>