<?xml version="1.0" encoding="UTF-8" standalone="no"?>
<svg width="1500px" height="200px" viewBox="0 0 1500 200" version="1.1" xmlns="http://www.w3.org/2000/svg" xmlns:xlink="http://www.w3.org/1999/xlink" xmlns:sketch="http://www.bohemiancoding.com/sketch/ns">
    <title>middle</title>
    <description>Created with Sketch (http://www.bohemiancoding.com/sketch)</description>
    <defs></defs>
    <g id="Page-1" stroke="none" stroke-width="1" fill="none" fill-rule="evenodd" sketch:type="MSPage">
        <g id="middle" sketch:type="MSArtboardGroup" fill="#7EC5FD" opacity="0.422159091">
            <path d="M494,112 C482.582435,112 472.820115,104.913057 468.871976,94.8981067 C468.257246,94.9654406 467.632659,95 467,95 C457.611159,95 450,87.3888412 450,78 C450,68.6111588 457.611159,61 467,61 C470.032105,61 472.878806,61.7938076 475.343621,63.1849403 C478.289323,55.4754309 485.755233,50 494.5,50 C502.754507,50 509.869531,54.8787 513.118891,61.9099172 C516.440931,59.4528096 520.550804,58 525,58 C536.045696,58 545,66.9543045 545,78 C545,89.0456955 536.045696,98 525,98 C522.639562,98 520.37463,97.5910868 518.272179,96.8402347 C513.884986,105.817034 504.664548,112 494,112 Z M844.5,38.5 C827.29878,38.5 812.602184,49.2235653 806.730794,64.3501145 C802.026825,61.89077 796.675828,60.5 791,60.5 C772.222318,60.5 757,75.7223176 757,94.5 C757,112.44063 770.895436,127.135805 788.51107,128.410288 C788.175437,130.222389 788,132.090707 788,134 C788,150.844686 801.655314,164.5 818.5,164.5 C827.043314,164.5 834.766216,160.987401 840.303278,155.32763 C846.253466,166.158829 857.769421,173.5 871,173.5 C890.329967,173.5 906,157.829967 906,138.5 C906,136.802302 905.879127,135.132836 905.645518,133.499738 C927.393838,133.421302 945,115.766722 945,94 C945,72.1847513 927.315249,54.5 905.5,54.5 C896.490394,54.5 888.185309,57.5164088 881.539544,62.5944263 C875.243434,48.4004859 861.027909,38.5 844.5,38.5 Z M1230,27 C1221.69743,27 1214.15719,30.3165583 1208.5924,35.7169905 C1205.61301,33.9874147 1202.16907,33 1198.5,33 C1187.17816,33 1178,42.4020197 1178,54 C1178,60.0557419 1180.50222,65.5128042 1184.50531,69.3454101 C1184.17459,70.8425645 1184,72.4003963 1184,74 C1184,85.5979803 1193.17816,95 1204.5,95 C1210.42208,95 1215.75765,92.4276189 1219.5,88.3141187 C1223.24235,92.4276189 1228.57792,95 1234.5,95 C1244.44563,95 1252.73706,87.7447517 1254.60581,78.1190295 C1256.47255,78.6921087 1258.45117,79 1260.5,79 C1271.82184,79 1281,69.5979803 1281,58 C1281,46.4020197 1271.82184,37 1260.5,37 C1258.11382,37 1255.82286,37.4176318 1253.69298,38.1854337 C1248.00646,31.3445227 1239.50254,27 1230,27 Z M222,42 C213.579581,42 205.798843,44.7387947 199.5,49.3741688 C193.201157,44.7387947 185.420419,42 177,42 C163.555987,42 151.742596,48.9815201 144.987575,59.516812 C140.127816,57.2598589 134.711036,56 129,56 C108.013178,56 91,73.0131785 91,94 C91,114.986822 108.013178,132 129,132 C129,152.986822 146.013178,170 167,170 C177.817678,170 187.579599,165.479774 194.5,158.225085 C201.420401,165.479774 211.182322,170 222,170 C240.765637,170 256.354238,156.3975 259.44374,138.514562 C262.795231,139.481744 266.337093,140 270,140 C290.986822,140 308,122.986822 308,102 C308,81.0131785 290.986822,64 270,64 C265.581112,64 261.33839,64.7542548 257.393553,66.1410448 C251.855301,52.0080597 238.096405,42 222,42 Z" id="clouds-middle" sketch:type="MSShapeGroup"></path>
        </g>
    </g>
</svg>